<svg width="144" height="19" fill="none" xmlns="http://www.w3.org/2000/svg"><path d="M0 17.53c.53-.02.9-.13 1.13-.32.24-.21.4-.52.46-.91.06-.4.1-.9.1-1.5V4.6c0-.75.02-1.4.07-1.91a99.88 99.88 0 0 1-1.76.1V1.41l5.87-.05c2.25 0 3.99.42 5.22 1.26 1.26.81 1.9 2.08 1.93 3.78a5.23 5.23 0 0 1-1.56 3.88 6.38 6.38 0 0 1-2.36 1.4c-1 .35-2.23.53-3.7.53a5.5 5.5 0 0 1-1.16 0v3.1c0 .88-.03 1.56-.08 2.04.34-.04.71-.06 1.11-.08l1.06-.05v1.38H0v-1.08Zm4.24-6.6.7.07h.72c1.34 0 2.44-.38 3.3-1.13a4.12 4.12 0 0 0 1.27-3.22c0-1.06-.21-1.89-.63-2.48-.4-.59-.94-1-1.61-1.22a6.15 6.15 0 0 0-2.17-.37c-.73 0-1.18.22-1.34.66a5.85 5.85 0 0 0-.24 1.94v5.74ZM20.1 19a5.91 5.91 0 0 1-3.03-.79 5.75 5.75 0 0 1-2.09-2.25 7.37 7.37 0 0 1-.77-3.47c0-1.14.25-2.21.75-3.21.51-1 1.22-1.8 2.11-2.4a5.55 5.55 0 0 1 3.2-.94c.89 0 1.71.2 2.48.59.77.38 1.4.98 1.86 1.82.48.81.72 1.9.72 3.24l-8.28.14c0 1.13.12 2.13.36 3 .26.85.67 1.51 1.23 1.99.56.47 1.3.7 2.19.7a5 5 0 0 0 3.9-1.96l.74.67a6 6 0 0 1-3.59 2.6c-.63.18-1.23.27-1.77.27Zm-2.95-8.54h5.56c0-.92-.2-1.7-.58-2.33a1.95 1.95 0 0 0-1.8-.99c-.87 0-1.58.28-2.12.84a4.46 4.46 0 0 0-1.06 2.48ZM27.35 17.58c.48 0 .82-.12 1.01-.35.2-.23.3-.55.34-.95.05-.41.07-.89.07-1.43V8.91c.02-.3.05-.6.1-.9a16.2 16.2 0 0 0-1.71.07v-1.3h.82c.67 0 1.18-.08 1.51-.23.36-.14.62-.3.8-.46h.86c.04.23.06.55.08.96l.04 1.37a6.89 6.89 0 0 1 1.69-1.74c.67-.5 1.4-.74 2.17-.74a2 2 0 0 1 1.27.42c.37.26.55.7.55 1.3 0 .26-.1.56-.3.88-.22.33-.57.49-1.07.47a1.35 1.35 0 0 1-.89-.4 1.3 1.3 0 0 1-.33-1c-.39 0-.77.12-1.16.37a5.37 5.37 0 0 0-1.9 2.2v5.38a17.57 17.57 0 0 1-.1 1.82c.26-.02.52-.02.8-.02l.74-.05v1.3h-5.39v-1.03ZM39.68 5.74c0-1.86.35-3.29 1.06-4.27C41.46.5 42.59 0 44.14 0c.71 0 1.35.17 1.9.52.55.34.84.8.84 1.4 0 .35-.1.66-.32.9-.19.25-.47.38-.84.4-.42 0-.72-.13-.91-.37a1.4 1.4 0 0 1-.27-.79V1.8c.02-.1.05-.2.1-.3a.86.86 0 0 0-.44-.26 1.56 1.56 0 0 0-.45-.08c-.42 0-.74.13-.97.37-.22.25-.38.56-.48.93-.1.38-.14.77-.14 1.16v2.72h3.08v1.28l-3.06.07.03 7.86a17.68 17.68 0 0 1-.1 1.84c.26-.02.52-.02.8-.02l.76-.05v1.3h-5.41v-1.03c.48 0 .82-.12 1.01-.35.2-.23.3-.55.34-.95.05-.41.07-.89.07-1.43V7.71l-1.9.05V6.33h1.9v-.59ZM52.36 19a5.9 5.9 0 0 1-6.06-6.24c0-1.32.26-2.5.79-3.5a6.36 6.36 0 0 1 2.19-2.44 5.94 5.94 0 0 1 8.3 2.14c.55.93.82 2.01.82 3.24 0 1.3-.27 2.48-.8 3.51a6.23 6.23 0 0 1-2.16 2.4 5.5 5.5 0 0 1-3.08.89Zm.17-1.23c.77 0 1.37-.23 1.8-.7.45-.5.77-1.11.96-1.85.2-.75.3-1.53.3-2.33a10.96 10.96 0 0 0-.75-3.93c-.26-.56-.6-1-1.01-1.33a2.2 2.2 0 0 0-1.52-.49c-.77 0-1.4.24-1.88.72-.46.47-.8 1.08-1 1.84-.22.73-.32 1.52-.32 2.35 0 .97.12 1.88.36 2.75.24.87.6 1.58 1.1 2.14.52.55 1.17.83 1.96.83ZM60.35 17.58c.48 0 .82-.12 1.01-.35.2-.23.3-.55.34-.95.05-.41.07-.89.07-1.43V8.91c.02-.3.05-.6.1-.9a16.2 16.2 0 0 0-1.71.07v-1.3h.82c.67 0 1.18-.08 1.51-.23.36-.14.62-.3.8-.46h.86c.03.23.06.55.07.96l.05 1.37a6.89 6.89 0 0 1 1.69-1.74c.67-.5 1.4-.74 2.16-.74a2 2 0 0 1 1.28.42c.37.26.55.7.55 1.3 0 .26-.1.56-.31.88-.2.33-.56.49-1.06.47a1.35 1.35 0 0 1-.89-.4 1.3 1.3 0 0 1-.34-1c-.38 0-.77.12-1.15.37a5.37 5.37 0 0 0-1.9 2.2v5.38a17.57 17.57 0 0 1-.1 1.82c.26-.02.52-.02.8-.02l.74-.05v1.3h-5.39v-1.03ZM71.16 18.6v-1.02c.48 0 .82-.12 1.01-.35.2-.23.3-.55.34-.95.05-.41.07-.89.07-1.43V8.91c.02-.3.05-.6.1-.9-.28 0-.56 0-.87.04l-.84.03v-1.3c.72 0 1.28-.04 1.68-.1.42-.07.73-.15.94-.25.23-.11.4-.23.5-.34h.87a69.03 69.03 0 0 1 .1 1.28c.5-.43 1.06-.77 1.69-1.04a4.9 4.9 0 0 1 1.85-.39c.78 0 1.43.15 1.95.44.53.28.94.68 1.25 1.2.56-.47 1.2-.86 1.9-1.17.7-.31 1.4-.47 2.07-.47 1.36 0 2.37.42 3.03 1.25.68.82 1 2.2.97 4.13l-.03 4.24a17.57 17.57 0 0 1-.1 1.82c.26-.02.53-.02.8-.02l.75-.05v1.3h-5.3v-1.03c.45 0 .76-.12.94-.35.2-.23.3-.55.34-.95.04-.41.07-.89.07-1.43v-3.53a5.39 5.39 0 0 0-.63-2.85c-.4-.6-1-.9-1.83-.9-.46 0-.93.1-1.4.31-.44.2-.83.45-1.17.76.16.56.24 1.21.24 1.96l-.03 2.48v2.48a17.57 17.57 0 0 1-.1 1.82c.25-.02.5-.02.78-.02l.74-.05v1.3H78.5v-1.03c.47 0 .8-.12.99-.35.2-.23.3-.55.34-.95.04-.41.07-.89.07-1.43V11.3a5.32 5.32 0 0 0-.56-2.85c-.36-.62-.96-.92-1.78-.9a3.96 3.96 0 0 0-2.48 1.08v.61c.02.21.03.44.03.69v5.64a17.57 17.57 0 0 1-.1 1.82c.24-.02.5-.02.75-.02l.74-.05v1.3h-5.34ZM100 18.6l-.07-.68a9.1 9.1 0 0 0-.07-.61 5.09 5.09 0 0 1-3.7 1.69c-1.16 0-2.04-.29-2.63-.86a3 3 0 0 1-.87-2.18c0-.76.22-1.41.65-1.97.43-.55 1-1 1.71-1.35a11.62 11.62 0 0 1 4.77-1.06v-1.44c0-.53-.05-1-.15-1.45a2 2 0 0 0-.6-1.1c-.3-.3-.76-.45-1.37-.45-.42-.01-.84.07-1.25.25-.42.16-.74.44-.97.83.13.13.21.29.24.47.05.16.08.32.08.47 0 .23-.1.49-.3.78-.19.28-.51.41-.98.4-.38 0-.68-.14-.89-.4-.2-.28-.29-.6-.29-.96 0-.58.2-1.1.63-1.57a4.4 4.4 0 0 1 1.73-1.08c.74-.26 1.57-.39 2.5-.39 1.38 0 2.4.37 3.08 1.1.7.74 1.04 1.9 1.04 3.5 0 .9-.01 1.73-.03 2.52v2.5a16.41 16.41 0 0 1-.1 1.82 266.43 266.43 0 0 1 1.67-.07v1.3H100Zm-.22-5.88c-.68.03-1.38.15-2.09.36-.69.2-1.27.51-1.73.94-.45.4-.67.95-.65 1.62.03.55.22.96.55 1.22.34.27.72.4 1.16.4.56 0 1.06-.1 1.49-.32a5.9 5.9 0 0 0 1.27-.93 6.06 6.06 0 0 1-.02-.54v-1.42c.02-.4.02-.84.02-1.33ZM105.38 18.6v-1.02c.48 0 .82-.12 1.01-.35.2-.23.3-.55.34-.95.05-.41.07-.89.07-1.43l.03-5.1V8.9c.01-.3.04-.6.1-.9-.3 0-.6 0-.9.04l-.82.03v-1.3c.73 0 1.29-.04 1.69-.1.41-.07.73-.15.94-.25.22-.11.39-.23.5-.34h.87c.03.23.05.44.05.64 0 .18.01.43.05.76a7.29 7.29 0 0 1 1.8-1.08 4.8 4.8 0 0 1 1.97-.47c1.43 0 2.46.44 3.08 1.33.65.88.97 2.26.97 4.14v4.15a17.68 17.68 0 0 1-.1 1.82c.26-.02.51-.02.77-.02l.75-.05v1.3h-5.37v-1.03c.48 0 .82-.12 1.01-.35.2-.23.3-.55.34-.95.05-.41.07-.89.07-1.43v-3.44a6.03 6.03 0 0 0-.6-2.92c-.39-.65-1.02-.97-1.9-.95-.52 0-1.03.13-1.54.39-.5.26-.91.58-1.23.96v6.67a17.68 17.68 0 0 1-.1 1.82c.24-.02.5-.02.77-.02l.75-.05v1.3h-5.37ZM126.04 19a5.76 5.76 0 0 1-5.13-2.9 6.76 6.76 0 0 1-.8-3.38A6.96 6.96 0 0 1 121.84 8a6.12 6.12 0 0 1 1.98-1.5 5.73 5.73 0 0 1 2.55-.57c.95 0 1.75.15 2.41.44.67.3 1.2.68 1.56 1.16.37.47.56.99.56 1.54 0 .4-.12.74-.34 1.03-.22.3-.55.45-.96.45-.48.01-.82-.13-1.01-.42-.18-.31-.27-.6-.27-.86 0-.15.03-.31.08-.5.04-.17.13-.34.26-.5a1.4 1.4 0 0 0-.63-.77 2.66 2.66 0 0 0-.89-.32 3.13 3.13 0 0 0-3.25 1.23c-.65.83-.98 2.05-.98 3.63 0 1.02.14 1.93.43 2.73.3.8.74 1.44 1.3 1.91a3.3 3.3 0 0 0 2.1.74c.72 0 1.41-.19 2.09-.57.67-.39 1.22-.88 1.63-1.47l.77.69a6.03 6.03 0 0 1-5.2 2.92ZM138.63 19a5.9 5.9 0 0 1-3.03-.79 5.74 5.74 0 0 1-2.1-2.25 7.36 7.36 0 0 1-.76-3.47c0-1.14.25-2.21.74-3.21.52-1 1.22-1.8 2.12-2.4a5.55 5.55 0 0 1 3.2-.94c.88 0 1.71.2 2.48.59.77.38 1.39.98 1.85 1.82.49.81.73 1.9.73 3.24l-8.28.14c0 1.13.12 2.13.36 3 .25.85.66 1.51 1.22 1.99.57.47 1.3.7 2.2.7a5 5 0 0 0 3.9-1.96l.74.67a6 6 0 0 1-3.59 2.6c-.64.18-1.23.27-1.78.27Zm-2.96-8.54h5.56c0-.92-.19-1.7-.57-2.33a1.95 1.95 0 0 0-1.81-.99c-.87 0-1.57.28-2.12.84a4.46 4.46 0 0 0-1.06 2.48Z" fill="#1F1E1C"/></svg>